<mxfile host="app.diagrams.net" modified="2023-04-12T18:45:03.046Z" agent="5.0 (Windows NT 10.0; Win64; x64) AppleWebKit/537.36 (KHTML, like Gecko) Chrome/111.0.0.0 Safari/537.36" etag="j_4lqYDCe1XAyfgPrnMd" version="21.0.6" type="github">
  <diagram name="Strona-1" id="F8oV4jsJ2x3jr4TYLexN">
    <mxGraphModel dx="1302" dy="698" grid="1" gridSize="10" guides="1" tooltips="1" connect="1" arrows="1" fold="1" page="1" pageScale="1" pageWidth="827" pageHeight="1169" math="0" shadow="0">
      <root>
        <mxCell id="0" />
        <mxCell id="1" parent="0" />
        <mxCell id="8BU4dVcqjI0_ThXPmGBu-2" value="Samochody" style="whiteSpace=wrap;html=1;align=center;" vertex="1" parent="1">
          <mxGeometry x="130" y="150" width="100" height="40" as="geometry" />
        </mxCell>
        <mxCell id="8BU4dVcqjI0_ThXPmGBu-3" value="Marka" style="ellipse;whiteSpace=wrap;html=1;align=center;" vertex="1" parent="1">
          <mxGeometry x="170" y="65" width="60" height="40" as="geometry" />
        </mxCell>
        <mxCell id="8BU4dVcqjI0_ThXPmGBu-4" value="&lt;font style=&quot;font-size: 10px;&quot;&gt;Pojemność silnika&lt;/font&gt;" style="ellipse;whiteSpace=wrap;html=1;align=center;" vertex="1" parent="1">
          <mxGeometry x="60" y="60" width="100" height="40" as="geometry" />
        </mxCell>
        <mxCell id="8BU4dVcqjI0_ThXPmGBu-6" value="ID Samochodu" style="ellipse;whiteSpace=wrap;html=1;align=center;fontStyle=4;" vertex="1" parent="1">
          <mxGeometry x="95" y="10" width="100" height="40" as="geometry" />
        </mxCell>
        <mxCell id="8BU4dVcqjI0_ThXPmGBu-9" value="Rodzaj usterki" style="ellipse;whiteSpace=wrap;html=1;align=center;" vertex="1" parent="1">
          <mxGeometry x="5" y="105" width="100" height="40" as="geometry" />
        </mxCell>
        <mxCell id="8BU4dVcqjI0_ThXPmGBu-10" value="ID Klienta" style="ellipse;whiteSpace=wrap;html=1;align=center;" vertex="1" parent="1">
          <mxGeometry x="90" y="250" width="75" height="30" as="geometry" />
        </mxCell>
        <mxCell id="8BU4dVcqjI0_ThXPmGBu-11" value="Imię klienta" style="ellipse;whiteSpace=wrap;html=1;align=center;" vertex="1" parent="1">
          <mxGeometry x="5" y="200" width="85" height="30" as="geometry" />
        </mxCell>
        <mxCell id="8BU4dVcqjI0_ThXPmGBu-13" value="&lt;font style=&quot;font-size: 11px;&quot;&gt;Nazwisko klienta&lt;/font&gt;" style="ellipse;whiteSpace=wrap;html=1;align=center;" vertex="1" parent="1">
          <mxGeometry y="150" width="100" height="40" as="geometry" />
        </mxCell>
        <mxCell id="8BU4dVcqjI0_ThXPmGBu-17" value="" style="endArrow=none;html=1;rounded=0;entryX=0;entryY=0.75;entryDx=0;entryDy=0;exitX=1;exitY=0;exitDx=0;exitDy=0;" edge="1" parent="1" source="8BU4dVcqjI0_ThXPmGBu-13" target="8BU4dVcqjI0_ThXPmGBu-2">
          <mxGeometry width="50" height="50" relative="1" as="geometry">
            <mxPoint x="120" y="250" as="sourcePoint" />
            <mxPoint x="170" y="200" as="targetPoint" />
            <Array as="points" />
          </mxGeometry>
        </mxCell>
        <mxCell id="8BU4dVcqjI0_ThXPmGBu-18" value="" style="endArrow=none;html=1;rounded=0;entryX=0;entryY=0.5;entryDx=0;entryDy=0;exitX=1;exitY=0.5;exitDx=0;exitDy=0;" edge="1" parent="1" source="8BU4dVcqjI0_ThXPmGBu-9" target="8BU4dVcqjI0_ThXPmGBu-2">
          <mxGeometry width="50" height="50" relative="1" as="geometry">
            <mxPoint x="100" y="176" as="sourcePoint" />
            <mxPoint x="150" y="130" as="targetPoint" />
            <Array as="points" />
          </mxGeometry>
        </mxCell>
        <mxCell id="8BU4dVcqjI0_ThXPmGBu-19" value="" style="endArrow=none;html=1;rounded=0;entryX=0;entryY=0;entryDx=0;entryDy=0;exitX=1;exitY=0.5;exitDx=0;exitDy=0;" edge="1" parent="1" source="8BU4dVcqjI0_ThXPmGBu-4" target="8BU4dVcqjI0_ThXPmGBu-2">
          <mxGeometry width="50" height="50" relative="1" as="geometry">
            <mxPoint x="130" y="136" as="sourcePoint" />
            <mxPoint x="180" y="90" as="targetPoint" />
            <Array as="points" />
          </mxGeometry>
        </mxCell>
        <mxCell id="8BU4dVcqjI0_ThXPmGBu-20" value="" style="endArrow=none;html=1;rounded=0;exitX=1;exitY=1;exitDx=0;exitDy=0;entryX=0.25;entryY=0;entryDx=0;entryDy=0;" edge="1" parent="1" source="8BU4dVcqjI0_ThXPmGBu-6" target="8BU4dVcqjI0_ThXPmGBu-2">
          <mxGeometry width="50" height="50" relative="1" as="geometry">
            <mxPoint x="120" y="126" as="sourcePoint" />
            <mxPoint x="180" y="120" as="targetPoint" />
            <Array as="points">
              <mxPoint x="150" y="130" />
            </Array>
          </mxGeometry>
        </mxCell>
        <mxCell id="8BU4dVcqjI0_ThXPmGBu-21" value="" style="endArrow=none;html=1;rounded=0;entryX=0.5;entryY=1;entryDx=0;entryDy=0;exitX=0.5;exitY=0;exitDx=0;exitDy=0;" edge="1" parent="1" source="8BU4dVcqjI0_ThXPmGBu-2" target="8BU4dVcqjI0_ThXPmGBu-3">
          <mxGeometry width="50" height="50" relative="1" as="geometry">
            <mxPoint x="170" y="140" as="sourcePoint" />
            <mxPoint x="230" y="104" as="targetPoint" />
            <Array as="points" />
          </mxGeometry>
        </mxCell>
        <mxCell id="8BU4dVcqjI0_ThXPmGBu-23" value="" style="endArrow=none;html=1;rounded=0;entryX=0.5;entryY=0;entryDx=0;entryDy=0;exitX=0.25;exitY=1;exitDx=0;exitDy=0;" edge="1" parent="1" source="8BU4dVcqjI0_ThXPmGBu-2" target="8BU4dVcqjI0_ThXPmGBu-10">
          <mxGeometry width="50" height="50" relative="1" as="geometry">
            <mxPoint x="180" y="210" as="sourcePoint" />
            <mxPoint x="300" y="144" as="targetPoint" />
            <Array as="points" />
          </mxGeometry>
        </mxCell>
        <mxCell id="8BU4dVcqjI0_ThXPmGBu-24" value="" style="endArrow=none;html=1;rounded=0;entryX=0;entryY=1;entryDx=0;entryDy=0;exitX=0.5;exitY=0;exitDx=0;exitDy=0;" edge="1" parent="1" source="8BU4dVcqjI0_ThXPmGBu-11" target="8BU4dVcqjI0_ThXPmGBu-2">
          <mxGeometry width="50" height="50" relative="1" as="geometry">
            <mxPoint x="175" y="246" as="sourcePoint" />
            <mxPoint x="225" y="200" as="targetPoint" />
            <Array as="points" />
          </mxGeometry>
        </mxCell>
        <mxCell id="8BU4dVcqjI0_ThXPmGBu-25" value="&lt;font style=&quot;font-size: 10px;&quot;&gt;Data wpływu do warsztatu&lt;/font&gt;" style="ellipse;whiteSpace=wrap;html=1;align=center;" vertex="1" parent="1">
          <mxGeometry x="210" y="30" width="100" height="40" as="geometry" />
        </mxCell>
        <mxCell id="8BU4dVcqjI0_ThXPmGBu-27" value="" style="endArrow=none;html=1;rounded=0;exitX=0.75;exitY=0;exitDx=0;exitDy=0;fontStyle=1;entryX=0.5;entryY=1;entryDx=0;entryDy=0;" edge="1" parent="1" source="8BU4dVcqjI0_ThXPmGBu-2" target="8BU4dVcqjI0_ThXPmGBu-25">
          <mxGeometry width="50" height="50" relative="1" as="geometry">
            <mxPoint x="190" y="136" as="sourcePoint" />
            <mxPoint x="250" y="60" as="targetPoint" />
            <Array as="points" />
          </mxGeometry>
        </mxCell>
        <mxCell id="8BU4dVcqjI0_ThXPmGBu-28" value="Klienci" style="whiteSpace=wrap;html=1;align=center;" vertex="1" parent="1">
          <mxGeometry x="500" y="150" width="100" height="40" as="geometry" />
        </mxCell>
        <mxCell id="8BU4dVcqjI0_ThXPmGBu-29" value="Imię klienta" style="ellipse;whiteSpace=wrap;html=1;align=center;" vertex="1" parent="1">
          <mxGeometry x="480" y="25" width="90" height="40" as="geometry" />
        </mxCell>
        <mxCell id="8BU4dVcqjI0_ThXPmGBu-31" value="&lt;font style=&quot;font-size: 11px;&quot;&gt;Nazwisko klienta&lt;/font&gt;" style="ellipse;whiteSpace=wrap;html=1;align=center;" vertex="1" parent="1">
          <mxGeometry x="660" y="50" width="100" height="40" as="geometry" />
        </mxCell>
        <mxCell id="8BU4dVcqjI0_ThXPmGBu-32" value="" style="endArrow=none;html=1;rounded=0;entryX=0;entryY=0.5;entryDx=0;entryDy=0;exitX=1;exitY=0.25;exitDx=0;exitDy=0;" edge="1" parent="1" source="8BU4dVcqjI0_ThXPmGBu-28" target="8BU4dVcqjI0_ThXPmGBu-31">
          <mxGeometry width="50" height="50" relative="1" as="geometry">
            <mxPoint x="640" y="214" as="sourcePoint" />
            <mxPoint x="675" y="230" as="targetPoint" />
            <Array as="points" />
          </mxGeometry>
        </mxCell>
        <mxCell id="8BU4dVcqjI0_ThXPmGBu-33" value="" style="endArrow=none;html=1;rounded=0;entryX=0.5;entryY=1;entryDx=0;entryDy=0;exitX=0.5;exitY=0;exitDx=0;exitDy=0;" edge="1" parent="1" source="8BU4dVcqjI0_ThXPmGBu-28" target="8BU4dVcqjI0_ThXPmGBu-29">
          <mxGeometry width="50" height="50" relative="1" as="geometry">
            <mxPoint x="565" y="114" as="sourcePoint" />
            <mxPoint x="600" y="130" as="targetPoint" />
            <Array as="points" />
          </mxGeometry>
        </mxCell>
        <mxCell id="8BU4dVcqjI0_ThXPmGBu-34" value="ID Klienta" style="ellipse;whiteSpace=wrap;html=1;align=center;fontStyle=4" vertex="1" parent="1">
          <mxGeometry x="400" y="65" width="100" height="40" as="geometry" />
        </mxCell>
        <mxCell id="8BU4dVcqjI0_ThXPmGBu-35" value="" style="endArrow=none;html=1;rounded=0;entryX=0.5;entryY=1;entryDx=0;entryDy=0;exitX=0.25;exitY=0;exitDx=0;exitDy=0;" edge="1" parent="1" source="8BU4dVcqjI0_ThXPmGBu-28" target="8BU4dVcqjI0_ThXPmGBu-34">
          <mxGeometry width="50" height="50" relative="1" as="geometry">
            <mxPoint x="470" y="153" as="sourcePoint" />
            <mxPoint x="490" y="107" as="targetPoint" />
            <Array as="points" />
          </mxGeometry>
        </mxCell>
        <mxCell id="8BU4dVcqjI0_ThXPmGBu-36" value="Telefon" style="ellipse;whiteSpace=wrap;html=1;align=center;" vertex="1" parent="1">
          <mxGeometry x="575.5" y="230" width="67.5" height="30" as="geometry" />
        </mxCell>
        <mxCell id="8BU4dVcqjI0_ThXPmGBu-37" value="" style="endArrow=none;html=1;rounded=0;entryX=0.75;entryY=1;entryDx=0;entryDy=0;exitX=0.5;exitY=0;exitDx=0;exitDy=0;" edge="1" parent="1" source="8BU4dVcqjI0_ThXPmGBu-36" target="8BU4dVcqjI0_ThXPmGBu-28">
          <mxGeometry width="50" height="50" relative="1" as="geometry">
            <mxPoint x="570" y="246" as="sourcePoint" />
            <mxPoint x="590" y="200" as="targetPoint" />
            <Array as="points" />
          </mxGeometry>
        </mxCell>
        <mxCell id="8BU4dVcqjI0_ThXPmGBu-38" value="Kod pocztowy" style="ellipse;whiteSpace=wrap;html=1;align=center;" vertex="1" parent="1">
          <mxGeometry x="688.5" y="90" width="100" height="40" as="geometry" />
        </mxCell>
        <mxCell id="8BU4dVcqjI0_ThXPmGBu-39" value="" style="endArrow=none;html=1;rounded=0;entryX=1;entryY=0.25;entryDx=0;entryDy=0;exitX=0;exitY=0.5;exitDx=0;exitDy=0;" edge="1" parent="1" source="8BU4dVcqjI0_ThXPmGBu-38" target="8BU4dVcqjI0_ThXPmGBu-28">
          <mxGeometry width="50" height="50" relative="1" as="geometry">
            <mxPoint x="645" y="220" as="sourcePoint" />
            <mxPoint x="615" y="180" as="targetPoint" />
            <Array as="points" />
          </mxGeometry>
        </mxCell>
        <mxCell id="8BU4dVcqjI0_ThXPmGBu-40" value="Miejscowość" style="ellipse;whiteSpace=wrap;html=1;align=center;" vertex="1" parent="1">
          <mxGeometry x="660" y="5" width="100" height="40" as="geometry" />
        </mxCell>
        <mxCell id="8BU4dVcqjI0_ThXPmGBu-41" value="" style="endArrow=none;html=1;rounded=0;entryX=1;entryY=0;entryDx=0;entryDy=0;exitX=0;exitY=0.5;exitDx=0;exitDy=0;" edge="1" parent="1" source="8BU4dVcqjI0_ThXPmGBu-40" target="8BU4dVcqjI0_ThXPmGBu-28">
          <mxGeometry width="50" height="50" relative="1" as="geometry">
            <mxPoint x="700" y="140" as="sourcePoint" />
            <mxPoint x="590" y="130" as="targetPoint" />
            <Array as="points" />
          </mxGeometry>
        </mxCell>
        <mxCell id="8BU4dVcqjI0_ThXPmGBu-45" value="Ulica" style="ellipse;whiteSpace=wrap;html=1;align=center;" vertex="1" parent="1">
          <mxGeometry x="590" y="50" width="40" height="30" as="geometry" />
        </mxCell>
        <mxCell id="8BU4dVcqjI0_ThXPmGBu-46" value="" style="endArrow=none;html=1;rounded=0;entryX=0.75;entryY=0;entryDx=0;entryDy=0;exitX=0;exitY=1;exitDx=0;exitDy=0;" edge="1" parent="1" source="8BU4dVcqjI0_ThXPmGBu-45" target="8BU4dVcqjI0_ThXPmGBu-28">
          <mxGeometry width="50" height="50" relative="1" as="geometry">
            <mxPoint x="720" y="90" as="sourcePoint" />
            <mxPoint x="593" y="140" as="targetPoint" />
            <Array as="points" />
          </mxGeometry>
        </mxCell>
        <mxCell id="8BU4dVcqjI0_ThXPmGBu-48" value="Nr domu" style="ellipse;whiteSpace=wrap;html=1;align=center;" vertex="1" parent="1">
          <mxGeometry x="570" y="10" width="73" height="30" as="geometry" />
        </mxCell>
        <mxCell id="8BU4dVcqjI0_ThXPmGBu-49" value="" style="endArrow=none;html=1;rounded=0;entryX=0.5;entryY=0;entryDx=0;entryDy=0;exitX=0;exitY=1;exitDx=0;exitDy=0;" edge="1" parent="1" source="8BU4dVcqjI0_ThXPmGBu-48" target="8BU4dVcqjI0_ThXPmGBu-28">
          <mxGeometry width="50" height="50" relative="1" as="geometry">
            <mxPoint x="640" y="80" as="sourcePoint" />
            <mxPoint x="570" y="120" as="targetPoint" />
            <Array as="points" />
          </mxGeometry>
        </mxCell>
        <mxCell id="8BU4dVcqjI0_ThXPmGBu-50" value="Płatności" style="whiteSpace=wrap;html=1;align=center;" vertex="1" parent="1">
          <mxGeometry x="522.5" y="700" width="100" height="40" as="geometry" />
        </mxCell>
        <mxCell id="8BU4dVcqjI0_ThXPmGBu-53" value="ID Płatności" style="ellipse;whiteSpace=wrap;html=1;align=center;fontStyle=4" vertex="1" parent="1">
          <mxGeometry x="510" y="610" width="100" height="40" as="geometry" />
        </mxCell>
        <mxCell id="8BU4dVcqjI0_ThXPmGBu-54" value="ID Klienta" style="ellipse;whiteSpace=wrap;html=1;align=center;fontStyle=0" vertex="1" parent="1">
          <mxGeometry x="680" y="720" width="100" height="40" as="geometry" />
        </mxCell>
        <mxCell id="8BU4dVcqjI0_ThXPmGBu-55" value="" style="endArrow=none;html=1;rounded=0;exitX=0.5;exitY=0;exitDx=0;exitDy=0;entryX=0.5;entryY=1;entryDx=0;entryDy=0;" edge="1" parent="1" source="8BU4dVcqjI0_ThXPmGBu-50" target="8BU4dVcqjI0_ThXPmGBu-53">
          <mxGeometry width="50" height="50" relative="1" as="geometry">
            <mxPoint x="547.5" y="680" as="sourcePoint" />
            <mxPoint x="492.5" y="580" as="targetPoint" />
            <Array as="points" />
          </mxGeometry>
        </mxCell>
        <mxCell id="8BU4dVcqjI0_ThXPmGBu-56" value="" style="endArrow=none;html=1;rounded=0;entryX=1;entryY=0.75;entryDx=0;entryDy=0;exitX=0;exitY=0.5;exitDx=0;exitDy=0;" edge="1" parent="1" source="8BU4dVcqjI0_ThXPmGBu-54" target="8BU4dVcqjI0_ThXPmGBu-50">
          <mxGeometry width="50" height="50" relative="1" as="geometry">
            <mxPoint x="682.5000000000064" y="737.4999999999999" as="sourcePoint" />
            <mxPoint x="595.5" y="770" as="targetPoint" />
            <Array as="points" />
          </mxGeometry>
        </mxCell>
        <mxCell id="8BU4dVcqjI0_ThXPmGBu-57" value="Kwota wpłaty" style="ellipse;whiteSpace=wrap;html=1;align=center;fontStyle=0" vertex="1" parent="1">
          <mxGeometry x="688.5" y="777.5" width="100" height="40" as="geometry" />
        </mxCell>
        <mxCell id="8BU4dVcqjI0_ThXPmGBu-58" value="" style="endArrow=none;html=1;rounded=0;exitX=0;exitY=0.5;exitDx=0;exitDy=0;entryX=0.75;entryY=1;entryDx=0;entryDy=0;" edge="1" parent="1" source="8BU4dVcqjI0_ThXPmGBu-57" target="8BU4dVcqjI0_ThXPmGBu-50">
          <mxGeometry width="50" height="50" relative="1" as="geometry">
            <mxPoint x="682.5000000000064" y="797.5" as="sourcePoint" />
            <mxPoint x="582.5" y="770" as="targetPoint" />
            <Array as="points" />
          </mxGeometry>
        </mxCell>
        <mxCell id="8BU4dVcqjI0_ThXPmGBu-59" value="Data wpłaty" style="ellipse;whiteSpace=wrap;html=1;align=center;fontStyle=0" vertex="1" parent="1">
          <mxGeometry x="622.5" y="820" width="100" height="40" as="geometry" />
        </mxCell>
        <mxCell id="8BU4dVcqjI0_ThXPmGBu-60" value="" style="endArrow=none;html=1;rounded=0;exitX=0.5;exitY=0;exitDx=0;exitDy=0;entryX=0.5;entryY=1;entryDx=0;entryDy=0;" edge="1" parent="1" source="8BU4dVcqjI0_ThXPmGBu-59" target="8BU4dVcqjI0_ThXPmGBu-50">
          <mxGeometry width="50" height="50" relative="1" as="geometry">
            <mxPoint x="690.5" y="800" as="sourcePoint" />
            <mxPoint x="555.5" y="760" as="targetPoint" />
            <Array as="points" />
          </mxGeometry>
        </mxCell>
        <mxCell id="8BU4dVcqjI0_ThXPmGBu-61" value="Imię klienta" style="ellipse;whiteSpace=wrap;html=1;align=center;" vertex="1" parent="1">
          <mxGeometry x="432.5" y="807.5" width="90" height="40" as="geometry" />
        </mxCell>
        <mxCell id="8BU4dVcqjI0_ThXPmGBu-63" value="&lt;font style=&quot;font-size: 11px;&quot;&gt;Nazwisko klienta&lt;/font&gt;" style="ellipse;whiteSpace=wrap;html=1;align=center;" vertex="1" parent="1">
          <mxGeometry x="586.5" y="890" width="80" height="40" as="geometry" />
        </mxCell>
        <mxCell id="8BU4dVcqjI0_ThXPmGBu-64" value="" style="endArrow=none;html=1;rounded=0;exitX=0;exitY=1;exitDx=0;exitDy=0;entryX=0.5;entryY=0;entryDx=0;entryDy=0;" edge="1" parent="1" source="8BU4dVcqjI0_ThXPmGBu-50" target="8BU4dVcqjI0_ThXPmGBu-61">
          <mxGeometry width="50" height="50" relative="1" as="geometry">
            <mxPoint x="592.5" y="837.5" as="sourcePoint" />
            <mxPoint x="472.5" y="807.5" as="targetPoint" />
            <Array as="points" />
          </mxGeometry>
        </mxCell>
        <mxCell id="8BU4dVcqjI0_ThXPmGBu-65" value="" style="endArrow=none;html=1;rounded=0;exitX=0.5;exitY=0;exitDx=0;exitDy=0;entryX=0.25;entryY=1;entryDx=0;entryDy=0;" edge="1" parent="1" source="8BU4dVcqjI0_ThXPmGBu-63" target="8BU4dVcqjI0_ThXPmGBu-50">
          <mxGeometry width="50" height="50" relative="1" as="geometry">
            <mxPoint x="659.5" y="840" as="sourcePoint" />
            <mxPoint x="547.5" y="747.5" as="targetPoint" />
            <Array as="points" />
          </mxGeometry>
        </mxCell>
        <mxCell id="8BU4dVcqjI0_ThXPmGBu-66" value="Zamówienia" style="whiteSpace=wrap;html=1;align=center;" vertex="1" parent="1">
          <mxGeometry x="400" y="390" width="100" height="40" as="geometry" />
        </mxCell>
        <mxCell id="8BU4dVcqjI0_ThXPmGBu-67" value="&lt;font style=&quot;font-size: 9px;&quot;&gt;ID Zamówienia&lt;/font&gt;" style="ellipse;whiteSpace=wrap;html=1;align=center;fontStyle=4" vertex="1" parent="1">
          <mxGeometry x="350" y="290" width="70" height="40" as="geometry" />
        </mxCell>
        <mxCell id="8BU4dVcqjI0_ThXPmGBu-70" value="&lt;span style=&quot;font-size: 11px;&quot;&gt;Rodzaj&lt;/span&gt;" style="ellipse;whiteSpace=wrap;html=1;align=center;" vertex="1" parent="1">
          <mxGeometry x="110" y="525" width="60" height="40" as="geometry" />
        </mxCell>
        <mxCell id="8BU4dVcqjI0_ThXPmGBu-71" value="&lt;font style=&quot;font-size: 11px;&quot;&gt;Nazwa&lt;/font&gt;" style="ellipse;whiteSpace=wrap;html=1;align=center;" vertex="1" parent="1">
          <mxGeometry x="140" y="470" width="70" height="30" as="geometry" />
        </mxCell>
        <mxCell id="8BU4dVcqjI0_ThXPmGBu-72" value="Potrzebne części" style="shape=ext;margin=3;double=1;whiteSpace=wrap;html=1;align=center;" vertex="1" parent="1">
          <mxGeometry x="130" y="587.5" width="100" height="40" as="geometry" />
        </mxCell>
        <mxCell id="8BU4dVcqjI0_ThXPmGBu-74" value="&lt;span style=&quot;font-size: 11px;&quot;&gt;Nazwa dostawcy&lt;/span&gt;" style="ellipse;whiteSpace=wrap;html=1;align=center;" vertex="1" parent="1">
          <mxGeometry x="210" y="450" width="80" height="40" as="geometry" />
        </mxCell>
        <mxCell id="8BU4dVcqjI0_ThXPmGBu-75" value="ID Zamówienia" style="ellipse;whiteSpace=wrap;html=1;align=center;" vertex="1" parent="1">
          <mxGeometry x="15" y="662.5" width="90" height="45" as="geometry" />
        </mxCell>
        <mxCell id="8BU4dVcqjI0_ThXPmGBu-76" value="&lt;font style=&quot;font-size: 9px;&quot;&gt;Kwota wpłaty&lt;br&gt;za część&lt;/font&gt;" style="ellipse;whiteSpace=wrap;html=1;align=center;" vertex="1" parent="1">
          <mxGeometry x="280" y="637.5" width="70" height="40" as="geometry" />
        </mxCell>
        <mxCell id="8BU4dVcqjI0_ThXPmGBu-78" value="Data wpłaty" style="ellipse;whiteSpace=wrap;html=1;align=center;fontStyle=0" vertex="1" parent="1">
          <mxGeometry x="180" y="505" width="70" height="40" as="geometry" />
        </mxCell>
        <mxCell id="8BU4dVcqjI0_ThXPmGBu-79" value="&lt;font style=&quot;font-size: 10px;&quot;&gt;Data realizacji&lt;/font&gt;" style="ellipse;whiteSpace=wrap;html=1;align=center;" vertex="1" parent="1">
          <mxGeometry x="345" y="470" width="80" height="40" as="geometry" />
        </mxCell>
        <mxCell id="8BU4dVcqjI0_ThXPmGBu-80" value="Data wpływu" style="ellipse;whiteSpace=wrap;html=1;align=center;" vertex="1" parent="1">
          <mxGeometry x="443.75" y="470" width="67.5" height="45" as="geometry" />
        </mxCell>
        <mxCell id="8BU4dVcqjI0_ThXPmGBu-84" value="ID Klienta" style="ellipse;whiteSpace=wrap;html=1;align=center;fontStyle=0" vertex="1" parent="1">
          <mxGeometry x="432.5" y="290" width="100" height="40" as="geometry" />
        </mxCell>
        <mxCell id="8BU4dVcqjI0_ThXPmGBu-85" value="ID Zamówienia" style="ellipse;whiteSpace=wrap;html=1;align=center;fontStyle=0" vertex="1" parent="1">
          <mxGeometry x="482.5" y="870" width="100" height="50" as="geometry" />
        </mxCell>
        <mxCell id="8BU4dVcqjI0_ThXPmGBu-86" value="" style="endArrow=none;html=1;rounded=0;exitX=0.5;exitY=0;exitDx=0;exitDy=0;entryX=0.142;entryY=1.006;entryDx=0;entryDy=0;entryPerimeter=0;" edge="1" parent="1" source="8BU4dVcqjI0_ThXPmGBu-85" target="8BU4dVcqjI0_ThXPmGBu-50">
          <mxGeometry width="50" height="50" relative="1" as="geometry">
            <mxPoint x="607" y="900" as="sourcePoint" />
            <mxPoint x="518" y="750" as="targetPoint" />
            <Array as="points" />
          </mxGeometry>
        </mxCell>
        <mxCell id="8BU4dVcqjI0_ThXPmGBu-87" value="" style="endArrow=none;html=1;rounded=0;entryX=0.25;entryY=1;entryDx=0;entryDy=0;exitX=1;exitY=0;exitDx=0;exitDy=0;" edge="1" parent="1" source="8BU4dVcqjI0_ThXPmGBu-75" target="8BU4dVcqjI0_ThXPmGBu-72">
          <mxGeometry width="50" height="50" relative="1" as="geometry">
            <mxPoint x="140" y="693.5" as="sourcePoint" />
            <mxPoint x="180" y="647.5" as="targetPoint" />
            <Array as="points" />
          </mxGeometry>
        </mxCell>
        <mxCell id="8BU4dVcqjI0_ThXPmGBu-88" value="" style="endArrow=none;html=1;rounded=0;entryX=0.25;entryY=0;entryDx=0;entryDy=0;exitX=1;exitY=1;exitDx=0;exitDy=0;" edge="1" parent="1" source="8BU4dVcqjI0_ThXPmGBu-70" target="8BU4dVcqjI0_ThXPmGBu-72">
          <mxGeometry width="50" height="50" relative="1" as="geometry">
            <mxPoint x="90" y="593.5" as="sourcePoint" />
            <mxPoint x="130" y="547.5" as="targetPoint" />
            <Array as="points" />
          </mxGeometry>
        </mxCell>
        <mxCell id="8BU4dVcqjI0_ThXPmGBu-89" value="" style="endArrow=none;html=1;rounded=0;entryX=0.5;entryY=0;entryDx=0;entryDy=0;exitX=0.5;exitY=1;exitDx=0;exitDy=0;" edge="1" parent="1" source="8BU4dVcqjI0_ThXPmGBu-71" target="8BU4dVcqjI0_ThXPmGBu-72">
          <mxGeometry width="50" height="50" relative="1" as="geometry">
            <mxPoint x="145" y="473.5" as="sourcePoint" />
            <mxPoint x="185" y="427.5" as="targetPoint" />
            <Array as="points" />
          </mxGeometry>
        </mxCell>
        <mxCell id="8BU4dVcqjI0_ThXPmGBu-90" value="" style="endArrow=none;html=1;rounded=0;entryX=0;entryY=0.5;entryDx=0;entryDy=0;exitX=1;exitY=0.75;exitDx=0;exitDy=0;" edge="1" parent="1" source="8BU4dVcqjI0_ThXPmGBu-72" target="8BU4dVcqjI0_ThXPmGBu-76">
          <mxGeometry width="50" height="50" relative="1" as="geometry">
            <mxPoint x="180" y="573.5" as="sourcePoint" />
            <mxPoint x="220" y="527.5" as="targetPoint" />
            <Array as="points" />
          </mxGeometry>
        </mxCell>
        <mxCell id="8BU4dVcqjI0_ThXPmGBu-91" value="" style="endArrow=none;html=1;rounded=0;entryX=0.5;entryY=1;entryDx=0;entryDy=0;exitX=1;exitY=0;exitDx=0;exitDy=0;" edge="1" parent="1" source="8BU4dVcqjI0_ThXPmGBu-72" target="8BU4dVcqjI0_ThXPmGBu-74">
          <mxGeometry width="50" height="50" relative="1" as="geometry">
            <mxPoint x="260" y="613.5" as="sourcePoint" />
            <mxPoint x="300" y="567.5" as="targetPoint" />
            <Array as="points">
              <mxPoint x="260" y="540" />
              <mxPoint x="260" y="520" />
            </Array>
          </mxGeometry>
        </mxCell>
        <mxCell id="8BU4dVcqjI0_ThXPmGBu-92" value="" style="endArrow=none;html=1;rounded=0;entryX=0.5;entryY=1;entryDx=0;entryDy=0;exitX=0.75;exitY=0;exitDx=0;exitDy=0;" edge="1" parent="1" source="8BU4dVcqjI0_ThXPmGBu-72" target="8BU4dVcqjI0_ThXPmGBu-78">
          <mxGeometry width="50" height="50" relative="1" as="geometry">
            <mxPoint x="200" y="587.5" as="sourcePoint" />
            <mxPoint x="240" y="541.5" as="targetPoint" />
            <Array as="points" />
          </mxGeometry>
        </mxCell>
        <mxCell id="8BU4dVcqjI0_ThXPmGBu-93" value="" style="endArrow=none;html=1;rounded=0;entryX=0;entryY=0;entryDx=0;entryDy=0;exitX=0.5;exitY=1;exitDx=0;exitDy=0;" edge="1" parent="1" source="8BU4dVcqjI0_ThXPmGBu-67" target="8BU4dVcqjI0_ThXPmGBu-66">
          <mxGeometry width="50" height="50" relative="1" as="geometry">
            <mxPoint x="455" y="358" as="sourcePoint" />
            <mxPoint x="495" y="312" as="targetPoint" />
            <Array as="points" />
          </mxGeometry>
        </mxCell>
        <mxCell id="8BU4dVcqjI0_ThXPmGBu-94" value="" style="endArrow=none;html=1;rounded=0;entryX=0.25;entryY=1;entryDx=0;entryDy=0;exitX=1;exitY=0;exitDx=0;exitDy=0;" edge="1" parent="1" source="8BU4dVcqjI0_ThXPmGBu-79" target="8BU4dVcqjI0_ThXPmGBu-66">
          <mxGeometry width="50" height="50" relative="1" as="geometry">
            <mxPoint x="515" y="470" as="sourcePoint" />
            <mxPoint x="555" y="424" as="targetPoint" />
            <Array as="points" />
          </mxGeometry>
        </mxCell>
        <mxCell id="8BU4dVcqjI0_ThXPmGBu-95" value="" style="endArrow=none;html=1;rounded=0;exitX=0.5;exitY=0;exitDx=0;exitDy=0;entryX=0.5;entryY=1;entryDx=0;entryDy=0;" edge="1" parent="1" source="8BU4dVcqjI0_ThXPmGBu-80" target="8BU4dVcqjI0_ThXPmGBu-66">
          <mxGeometry width="50" height="50" relative="1" as="geometry">
            <mxPoint x="605" y="450" as="sourcePoint" />
            <mxPoint x="645" y="394" as="targetPoint" />
            <Array as="points" />
          </mxGeometry>
        </mxCell>
        <mxCell id="8BU4dVcqjI0_ThXPmGBu-99" value="" style="endArrow=none;html=1;rounded=0;exitX=0.5;exitY=0;exitDx=0;exitDy=0;entryX=0.5;entryY=1;entryDx=0;entryDy=0;" edge="1" parent="1" source="8BU4dVcqjI0_ThXPmGBu-66" target="8BU4dVcqjI0_ThXPmGBu-84">
          <mxGeometry width="50" height="50" relative="1" as="geometry">
            <mxPoint x="448" y="330" as="sourcePoint" />
            <mxPoint x="517" y="310" as="targetPoint" />
            <Array as="points" />
          </mxGeometry>
        </mxCell>
        <mxCell id="8BU4dVcqjI0_ThXPmGBu-115" value="" style="edgeStyle=entityRelationEdgeStyle;fontSize=12;html=1;endArrow=ERoneToMany;rounded=0;exitX=1;exitY=1;exitDx=0;exitDy=0;strokeColor=#0000FF;entryX=1;entryY=0.25;entryDx=0;entryDy=0;" edge="1" parent="1" source="8BU4dVcqjI0_ThXPmGBu-28" target="8BU4dVcqjI0_ThXPmGBu-66">
          <mxGeometry width="100" height="100" relative="1" as="geometry">
            <mxPoint x="610" y="180" as="sourcePoint" />
            <mxPoint x="340" y="370" as="targetPoint" />
          </mxGeometry>
        </mxCell>
        <mxCell id="8BU4dVcqjI0_ThXPmGBu-116" value="" style="edgeStyle=entityRelationEdgeStyle;fontSize=12;html=1;endArrow=ERoneToMany;rounded=0;exitX=0;exitY=0.25;exitDx=0;exitDy=0;entryX=1;entryY=0.646;entryDx=0;entryDy=0;entryPerimeter=0;strokeColor=#0000FF;" edge="1" parent="1" source="8BU4dVcqjI0_ThXPmGBu-66" target="8BU4dVcqjI0_ThXPmGBu-2">
          <mxGeometry width="100" height="100" relative="1" as="geometry">
            <mxPoint x="280" y="169.99999999999977" as="sourcePoint" />
            <mxPoint x="135" y="329.9999999999998" as="targetPoint" />
          </mxGeometry>
        </mxCell>
        <mxCell id="8BU4dVcqjI0_ThXPmGBu-117" value="" style="edgeStyle=entityRelationEdgeStyle;fontSize=12;html=1;endArrow=ERoneToMany;rounded=0;entryX=1;entryY=0.25;entryDx=0;entryDy=0;exitX=0;exitY=0.25;exitDx=0;exitDy=0;strokeColor=#0000FF;" edge="1" parent="1" source="8BU4dVcqjI0_ThXPmGBu-28" target="8BU4dVcqjI0_ThXPmGBu-2">
          <mxGeometry width="100" height="100" relative="1" as="geometry">
            <mxPoint x="380" y="210" as="sourcePoint" />
            <mxPoint x="360" y="165" as="targetPoint" />
          </mxGeometry>
        </mxCell>
        <mxCell id="8BU4dVcqjI0_ThXPmGBu-118" value="&lt;font style=&quot;font-size: 9px;&quot;&gt;ID Zamówienia&lt;/font&gt;" style="ellipse;whiteSpace=wrap;html=1;align=center;fontStyle=0" vertex="1" parent="1">
          <mxGeometry x="15" y="250" width="70" height="40" as="geometry" />
        </mxCell>
        <mxCell id="8BU4dVcqjI0_ThXPmGBu-119" value="" style="endArrow=none;html=1;rounded=0;entryX=0.25;entryY=1;entryDx=0;entryDy=0;exitX=0.5;exitY=0;exitDx=0;exitDy=0;" edge="1" parent="1" source="8BU4dVcqjI0_ThXPmGBu-118" target="8BU4dVcqjI0_ThXPmGBu-2">
          <mxGeometry width="50" height="50" relative="1" as="geometry">
            <mxPoint x="140" y="300" as="sourcePoint" />
            <mxPoint x="225" y="190" as="targetPoint" />
            <Array as="points" />
          </mxGeometry>
        </mxCell>
        <mxCell id="8BU4dVcqjI0_ThXPmGBu-120" value="ID Samochodu" style="ellipse;whiteSpace=wrap;html=1;align=center;fontStyle=0;" vertex="1" parent="1">
          <mxGeometry x="95" y="707.5" width="100" height="40" as="geometry" />
        </mxCell>
        <mxCell id="8BU4dVcqjI0_ThXPmGBu-121" value="" style="endArrow=none;html=1;rounded=0;entryX=0.5;entryY=1;entryDx=0;entryDy=0;exitX=0.5;exitY=0;exitDx=0;exitDy=0;" edge="1" parent="1" source="8BU4dVcqjI0_ThXPmGBu-120" target="8BU4dVcqjI0_ThXPmGBu-72">
          <mxGeometry width="50" height="50" relative="1" as="geometry">
            <mxPoint x="165" y="691" as="sourcePoint" />
            <mxPoint x="228" y="650" as="targetPoint" />
            <Array as="points" />
          </mxGeometry>
        </mxCell>
        <mxCell id="8BU4dVcqjI0_ThXPmGBu-123" value="" style="edgeStyle=entityRelationEdgeStyle;fontSize=12;html=1;endArrow=ERoneToMany;rounded=0;strokeColor=#0000FF;" edge="1" parent="1">
          <mxGeometry width="100" height="100" relative="1" as="geometry">
            <mxPoint x="180" y="190" as="sourcePoint" />
            <mxPoint x="130" y="608" as="targetPoint" />
          </mxGeometry>
        </mxCell>
        <mxCell id="8BU4dVcqjI0_ThXPmGBu-124" value="" style="edgeStyle=entityRelationEdgeStyle;fontSize=12;html=1;endArrow=ERoneToMany;rounded=0;exitX=0;exitY=0.5;exitDx=0;exitDy=0;entryX=1;entryY=0.5;entryDx=0;entryDy=0;strokeColor=#0000FF;" edge="1" parent="1" source="8BU4dVcqjI0_ThXPmGBu-66" target="8BU4dVcqjI0_ThXPmGBu-72">
          <mxGeometry width="100" height="100" relative="1" as="geometry">
            <mxPoint x="390" y="107" as="sourcePoint" />
            <mxPoint x="230" y="598" as="targetPoint" />
          </mxGeometry>
        </mxCell>
        <mxCell id="8BU4dVcqjI0_ThXPmGBu-125" value="" style="edgeStyle=entityRelationEdgeStyle;fontSize=12;html=1;endArrow=ERmandOne;startArrow=ERmandOne;rounded=0;exitX=0;exitY=0.5;exitDx=0;exitDy=0;entryX=1;entryY=0.75;entryDx=0;entryDy=0;strokeColor=#0000FF;" edge="1" parent="1" source="8BU4dVcqjI0_ThXPmGBu-50" target="8BU4dVcqjI0_ThXPmGBu-66">
          <mxGeometry width="100" height="100" relative="1" as="geometry">
            <mxPoint x="450" y="662.5" as="sourcePoint" />
            <mxPoint x="550" y="562.5" as="targetPoint" />
          </mxGeometry>
        </mxCell>
        <mxCell id="8BU4dVcqjI0_ThXPmGBu-126" value="" style="edgeStyle=entityRelationEdgeStyle;fontSize=12;html=1;endArrow=ERoneToMany;rounded=0;exitX=1;exitY=0.5;exitDx=0;exitDy=0;strokeColor=#0000FF;" edge="1" parent="1" source="8BU4dVcqjI0_ThXPmGBu-28" target="8BU4dVcqjI0_ThXPmGBu-50">
          <mxGeometry width="100" height="100" relative="1" as="geometry">
            <mxPoint x="464.00000000000045" y="505" as="sourcePoint" />
            <mxPoint x="620" y="710" as="targetPoint" />
          </mxGeometry>
        </mxCell>
        <mxCell id="8BU4dVcqjI0_ThXPmGBu-127" value="Ilość" style="ellipse;whiteSpace=wrap;html=1;align=center;fontStyle=0;" vertex="1" parent="1">
          <mxGeometry x="230" y="707.5" width="100" height="40" as="geometry" />
        </mxCell>
        <mxCell id="8BU4dVcqjI0_ThXPmGBu-128" value="" style="endArrow=none;html=1;rounded=0;exitX=0.75;exitY=1;exitDx=0;exitDy=0;" edge="1" parent="1" source="8BU4dVcqjI0_ThXPmGBu-72" target="8BU4dVcqjI0_ThXPmGBu-127">
          <mxGeometry width="50" height="50" relative="1" as="geometry">
            <mxPoint x="210" y="650" as="sourcePoint" />
            <mxPoint x="260" y="690" as="targetPoint" />
            <Array as="points" />
          </mxGeometry>
        </mxCell>
        <mxCell id="8BU4dVcqjI0_ThXPmGBu-130" style="edgeStyle=orthogonalEdgeStyle;rounded=0;orthogonalLoop=1;jettySize=auto;html=1;exitX=0.5;exitY=1;exitDx=0;exitDy=0;" edge="1" parent="1">
          <mxGeometry relative="1" as="geometry">
            <mxPoint x="750" y="185" as="sourcePoint" />
            <mxPoint x="750" y="185" as="targetPoint" />
          </mxGeometry>
        </mxCell>
      </root>
    </mxGraphModel>
  </diagram>
</mxfile>
